<mxfile host="65bd71144e">
    <diagram name="ページ1" id="EmrC-pLuZmeqLHvhbOav">
<<<<<<< HEAD
        <mxGraphModel dx="477" dy="419" grid="1" gridSize="10" guides="1" tooltips="1" connect="1" arrows="1" fold="1" page="1" pageScale="1" pageWidth="1169" pageHeight="827" math="0" shadow="0">
=======
        <mxGraphModel dx="816" dy="419" grid="1" gridSize="10" guides="1" tooltips="1" connect="1" arrows="1" fold="1" page="1" pageScale="1" pageWidth="1169" pageHeight="827" math="0" shadow="0">
>>>>>>> e41a35ae49646f9ebe7fd0bf3a3773564195d47b
            <root>
                <mxCell id="0"/>
                <mxCell id="1" parent="0"/>
                <mxCell id="10VEGs-uskNU2SIhcTbT-10" style="edgeStyle=orthogonalEdgeStyle;rounded=0;orthogonalLoop=1;jettySize=auto;html=1;exitX=1;exitY=0.3333333333333333;exitDx=0;exitDy=0;exitPerimeter=0;entryX=0.03;entryY=0.626;entryDx=0;entryDy=0;entryPerimeter=0;" parent="1" source="10VEGs-uskNU2SIhcTbT-1" target="10VEGs-uskNU2SIhcTbT-9" edge="1">
                    <mxGeometry relative="1" as="geometry">
                        <mxPoint x="310" y="270.1111111111111" as="targetPoint"/>
                    </mxGeometry>
                </mxCell>
                <mxCell id="10VEGs-uskNU2SIhcTbT-1" value="倉庫業者&lt;div&gt;アカウント管理者&lt;/div&gt;&lt;div&gt;カスタマーサポーター&lt;/div&gt;" style="shape=umlActor;verticalLabelPosition=bottom;verticalAlign=top;html=1;" parent="1" vertex="1">
<<<<<<< HEAD
                    <mxGeometry x="90" y="120" width="30" height="60" as="geometry"/>
                </mxCell>
                <mxCell id="10VEGs-uskNU2SIhcTbT-9" value="メニュー画面" style="shape=umlBoundary;whiteSpace=wrap;html=1;" parent="1" vertex="1">
                    <mxGeometry x="260" y="90" width="100" height="80" as="geometry"/>
                </mxCell>
                <mxCell id="10VEGs-uskNU2SIhcTbT-11" value="アカウント変更画面" style="shape=umlBoundary;whiteSpace=wrap;html=1;" parent="1" vertex="1">
                    <mxGeometry x="640" y="120" width="100" height="80" as="geometry"/>
=======
                    <mxGeometry x="110" y="150" width="30" height="60" as="geometry"/>
                </mxCell>
                <mxCell id="10VEGs-uskNU2SIhcTbT-9" value="メニュー画面" style="shape=umlBoundary;whiteSpace=wrap;html=1;" parent="1" vertex="1">
                    <mxGeometry x="290" y="120" width="100" height="80" as="geometry"/>
                </mxCell>
                <mxCell id="10VEGs-uskNU2SIhcTbT-11" value="アカウント変更画面" style="shape=umlBoundary;whiteSpace=wrap;html=1;" parent="1" vertex="1">
                    <mxGeometry x="540" y="120" width="100" height="80" as="geometry"/>
                </mxCell>
                <mxCell id="10VEGs-uskNU2SIhcTbT-12" style="edgeStyle=orthogonalEdgeStyle;rounded=0;orthogonalLoop=1;jettySize=auto;html=1;entryX=0;entryY=0.5;entryDx=0;entryDy=0;entryPerimeter=0;" parent="1" source="10VEGs-uskNU2SIhcTbT-9" target="10VEGs-uskNU2SIhcTbT-11" edge="1">
                    <mxGeometry relative="1" as="geometry"/>
>>>>>>> e41a35ae49646f9ebe7fd0bf3a3773564195d47b
                </mxCell>
                <mxCell id="10VEGs-uskNU2SIhcTbT-19" style="edgeStyle=orthogonalEdgeStyle;rounded=0;orthogonalLoop=1;jettySize=auto;html=1;" parent="1" source="10VEGs-uskNU2SIhcTbT-13" target="10VEGs-uskNU2SIhcTbT-18" edge="1">
                    <mxGeometry relative="1" as="geometry"/>
                </mxCell>
<<<<<<< HEAD
                <mxCell id="10VEGs-uskNU2SIhcTbT-13" value="変更したい情報を入力" style="ellipse;shape=umlControl;whiteSpace=wrap;html=1;" parent="1" vertex="1">
                    <mxGeometry x="570" y="420" width="70" height="80" as="geometry"/>
=======
                <mxCell id="9" style="edgeStyle=none;html=1;" edge="1" parent="1" source="10VEGs-uskNU2SIhcTbT-13" target="8">
                    <mxGeometry relative="1" as="geometry"/>
                </mxCell>
                <mxCell id="10VEGs-uskNU2SIhcTbT-13" value="変更したい情報を入力" style="ellipse;shape=umlControl;whiteSpace=wrap;html=1;" parent="1" vertex="1">
                    <mxGeometry x="490" y="334" width="70" height="80" as="geometry"/>
>>>>>>> e41a35ae49646f9ebe7fd0bf3a3773564195d47b
                </mxCell>
                <mxCell id="10VEGs-uskNU2SIhcTbT-17" value="" style="endArrow=open;endFill=1;endSize=12;html=1;rounded=0;exitX=0.515;exitY=0.974;exitDx=0;exitDy=0;exitPerimeter=0;entryX=0.503;entryY=0.057;entryDx=0;entryDy=0;entryPerimeter=0;" parent="1" source="10VEGs-uskNU2SIhcTbT-11" target="10VEGs-uskNU2SIhcTbT-13" edge="1">
                    <mxGeometry width="160" relative="1" as="geometry">
                        <mxPoint x="430" y="320" as="sourcePoint"/>
                        <mxPoint x="590" y="320" as="targetPoint"/>
                    </mxGeometry>
                </mxCell>
<<<<<<< HEAD
                <mxCell id="10VEGs-uskNU2SIhcTbT-18" value="エラーメッセージの表示された画面" style="shape=umlBoundary;whiteSpace=wrap;html=1;" parent="1" vertex="1">
                    <mxGeometry x="260" y="420" width="100" height="80" as="geometry"/>
                </mxCell>
                <mxCell id="10VEGs-uskNU2SIhcTbT-21" value="" style="endArrow=open;endFill=1;endSize=12;html=1;rounded=0;exitX=1.016;exitY=0.539;exitDx=0;exitDy=0;exitPerimeter=0;entryX=0.017;entryY=0.483;entryDx=0;entryDy=0;entryPerimeter=0;" parent="1" source="10VEGs-uskNU2SIhcTbT-13" target="11" edge="1">
                    <mxGeometry width="160" relative="1" as="geometry">
                        <mxPoint x="390" y="270" as="sourcePoint"/>
                        <mxPoint x="770" y="470" as="targetPoint"/>
                    </mxGeometry>
                </mxCell>
                <mxCell id="10VEGs-uskNU2SIhcTbT-22" value="変更完了画面" style="shape=umlBoundary;whiteSpace=wrap;html=1;" parent="1" vertex="1">
                    <mxGeometry x="970" y="414" width="100" height="80" as="geometry"/>
                </mxCell>
                <mxCell id="10VEGs-uskNU2SIhcTbT-24" value="" style="endArrow=open;endFill=1;endSize=12;html=1;rounded=0;exitX=0.64;exitY=0.008;exitDx=0;exitDy=0;exitPerimeter=0;entryX=0.863;entryY=0.908;entryDx=0;entryDy=0;entryPerimeter=0;" parent="1" source="10VEGs-uskNU2SIhcTbT-22" target="5" edge="1">
                    <mxGeometry width="160" relative="1" as="geometry">
                        <mxPoint x="390" y="270" as="sourcePoint"/>
                        <mxPoint x="840" y="280" as="targetPoint"/>
                    </mxGeometry>
                </mxCell>
                <mxCell id="2" value="アカウント変更画面を選択" style="ellipse;shape=umlControl;whiteSpace=wrap;html=1;" vertex="1" parent="1">
                    <mxGeometry x="480" y="30" width="70" height="80" as="geometry"/>
                </mxCell>
                <mxCell id="3" value="" style="endArrow=classic;html=1;exitX=1.007;exitY=0.5;exitDx=0;exitDy=0;exitPerimeter=0;entryX=0;entryY=0.6;entryDx=0;entryDy=0;entryPerimeter=0;" edge="1" parent="1" source="10VEGs-uskNU2SIhcTbT-9" target="2">
                    <mxGeometry width="50" height="50" relative="1" as="geometry">
                        <mxPoint x="480" y="260" as="sourcePoint"/>
                        <mxPoint x="460" y="90" as="targetPoint"/>
                    </mxGeometry>
                </mxCell>
                <mxCell id="4" value="" style="endArrow=classic;html=1;exitX=0.981;exitY=0.667;exitDx=0;exitDy=0;exitPerimeter=0;entryX=-0.033;entryY=0.5;entryDx=0;entryDy=0;entryPerimeter=0;" edge="1" parent="1" source="2" target="10VEGs-uskNU2SIhcTbT-11">
                    <mxGeometry width="50" height="50" relative="1" as="geometry">
                        <mxPoint x="401" y="170" as="sourcePoint"/>
                        <mxPoint x="640" y="70" as="targetPoint"/>
                    </mxGeometry>
                </mxCell>
                <mxCell id="5" value="「戻るボタン」を押す" style="ellipse;shape=umlControl;whiteSpace=wrap;html=1;" vertex="1" parent="1">
                    <mxGeometry x="820" y="190" width="95" height="80" as="geometry"/>
                </mxCell>
                <mxCell id="6" value="" style="endArrow=open;endFill=1;endSize=12;html=1;rounded=0;exitX=-0.014;exitY=0.533;exitDx=0;exitDy=0;exitPerimeter=0;entryX=0.92;entryY=0.75;entryDx=0;entryDy=0;entryPerimeter=0;" edge="1" parent="1" source="5" target="10VEGs-uskNU2SIhcTbT-11">
                    <mxGeometry width="160" relative="1" as="geometry">
                        <mxPoint x="864" y="391" as="sourcePoint"/>
                        <mxPoint x="871" y="283" as="targetPoint"/>
                    </mxGeometry>
                </mxCell>
                <mxCell id="7" value="不備があった場合" style="text;html=1;align=center;verticalAlign=middle;resizable=0;points=[];autosize=1;strokeColor=none;fillColor=none;" vertex="1" parent="1">
                    <mxGeometry x="420" y="420" width="120" height="30" as="geometry"/>
                </mxCell>
                <mxCell id="8" value="エラー" style="ellipse;shape=umlControl;whiteSpace=wrap;html=1;" vertex="1" parent="1">
                    <mxGeometry x="290" y="250" width="70" height="80" as="geometry"/>
                </mxCell>
                <mxCell id="9" style="edgeStyle=none;html=1;entryX=0.448;entryY=1.008;entryDx=0;entryDy=0;entryPerimeter=0;exitX=0.6;exitY=0;exitDx=0;exitDy=0;exitPerimeter=0;" edge="1" parent="1" source="10VEGs-uskNU2SIhcTbT-18" target="8">
                    <mxGeometry relative="1" as="geometry"/>
                </mxCell>
                <mxCell id="10" style="edgeStyle=none;html=1;entryX=0.6;entryY=1.017;entryDx=0;entryDy=0;entryPerimeter=0;exitX=0.429;exitY=0.15;exitDx=0;exitDy=0;exitPerimeter=0;" edge="1" parent="1" source="8" target="10VEGs-uskNU2SIhcTbT-9">
                    <mxGeometry relative="1" as="geometry"/>
                </mxCell>
                <mxCell id="11" value="「変更ボタン」を押す" style="ellipse;shape=umlControl;whiteSpace=wrap;html=1;" vertex="1" parent="1">
                    <mxGeometry x="770" y="430" width="80" height="80" as="geometry"/>
                </mxCell>
                <mxCell id="12" style="edgeStyle=none;html=1;entryX=0.027;entryY=0.483;entryDx=0;entryDy=0;entryPerimeter=0;exitX=1.008;exitY=0.575;exitDx=0;exitDy=0;exitPerimeter=0;" edge="1" parent="1" source="11" target="10VEGs-uskNU2SIhcTbT-22">
                    <mxGeometry relative="1" as="geometry"/>
                </mxCell>
=======
                <mxCell id="4" style="edgeStyle=none;html=1;" edge="1" parent="1" source="10VEGs-uskNU2SIhcTbT-18" target="2">
                    <mxGeometry relative="1" as="geometry"/>
                </mxCell>
                <mxCell id="10VEGs-uskNU2SIhcTbT-18" value="エラーメッセージの表示された画面" style="shape=umlBoundary;whiteSpace=wrap;html=1;" parent="1" vertex="1">
                    <mxGeometry x="300" y="334" width="100" height="80" as="geometry"/>
                </mxCell>
                <mxCell id="10VEGs-uskNU2SIhcTbT-21" value="" style="endArrow=open;endFill=1;endSize=12;html=1;rounded=0;exitX=1.016;exitY=0.539;exitDx=0;exitDy=0;exitPerimeter=0;" parent="1" source="10VEGs-uskNU2SIhcTbT-13" target="10VEGs-uskNU2SIhcTbT-22" edge="1">
                    <mxGeometry width="160" relative="1" as="geometry">
                        <mxPoint x="390" y="270" as="sourcePoint"/>
                        <mxPoint x="650" y="374" as="targetPoint"/>
                    </mxGeometry>
                </mxCell>
                <mxCell id="10VEGs-uskNU2SIhcTbT-22" value="変更完了画面" style="shape=umlBoundary;whiteSpace=wrap;html=1;" parent="1" vertex="1">
                    <mxGeometry x="600" y="334" width="100" height="80" as="geometry"/>
                </mxCell>
                <mxCell id="2" value="メニュー画面に戻るを選択" style="ellipse;shape=umlControl;whiteSpace=wrap;html=1;" vertex="1" parent="1">
                    <mxGeometry x="315" y="230" width="70" height="80" as="geometry"/>
                </mxCell>
                <mxCell id="3" style="edgeStyle=none;html=1;entryX=0.587;entryY=1;entryDx=0;entryDy=0;entryPerimeter=0;" edge="1" parent="1" source="2" target="10VEGs-uskNU2SIhcTbT-9">
                    <mxGeometry relative="1" as="geometry"/>
                </mxCell>
                <mxCell id="5" value="アカウント変更画面に戻るを選択" style="ellipse;shape=umlControl;whiteSpace=wrap;html=1;" vertex="1" parent="1">
                    <mxGeometry x="610" y="220" width="70" height="80" as="geometry"/>
                </mxCell>
                <mxCell id="6" style="edgeStyle=none;html=1;entryX=0.873;entryY=0.892;entryDx=0;entryDy=0;entryPerimeter=0;" edge="1" parent="1" source="5" target="10VEGs-uskNU2SIhcTbT-11">
                    <mxGeometry relative="1" as="geometry"/>
                </mxCell>
                <mxCell id="7" style="edgeStyle=none;html=1;entryX=0.495;entryY=0.95;entryDx=0;entryDy=0;entryPerimeter=0;" edge="1" parent="1" source="10VEGs-uskNU2SIhcTbT-22" target="5">
                    <mxGeometry relative="1" as="geometry"/>
                </mxCell>
                <mxCell id="8" value="アカウントの変更を保存" style="ellipse;shape=umlEntity;whiteSpace=wrap;html=1;" vertex="1" parent="1">
                    <mxGeometry x="485" y="470" width="80" height="80" as="geometry"/>
                </mxCell>
>>>>>>> e41a35ae49646f9ebe7fd0bf3a3773564195d47b
            </root>
        </mxGraphModel>
    </diagram>
</mxfile>